<svg id="Layer_1" data-name="Layer 1" xmlns="http://www.w3.org/2000/svg" viewBox="0 0 2500 319.549">
	<path d="M976.076,29.983V19.913L971.736,17H798.75l-2.882,2.881V29.983l2.882,2.882h73.507l2.882,2.882V246.233l2.882,2.882h12.986l2.882-2.882V37.205l2.882-2.917h75Zm38.959,50.486c-46.146,0-73.611,33.125-73.611,80.694v7.257c0,46.146,23.09,86.458,76.458,86.458,46.146,0,63.437-30.277,66.319-50.451l-2.847-2.847h-13.021l-2.847,2.847c-7.222,20.174-20.243,33.16-46.181,33.16-43.263,0-56.25-40.382-56.25-60.556l2.952-2.847h119.618l2.916-2.917v-10.1c0-47.569-25.937-80.694-73.507-80.694Zm0,17.291c20.173,0,33.472,8.3,41.77,19.445,8.3,11.18,11.528,25.243,11.528,36.771l-2.847,2.916h-100.9l-2.916-2.916c0-11.528,3.229-25.591,11.527-36.771C981.458,106.059,994.826,97.76,1015.035,97.76Zm106.666,69.2c0-46.181,23.056-70.66,56.25-70.66,33.125,0,46.111,20.174,50.417,40.382l2.882,2.882h14.444l2.882-2.882c-2.882-33.16-30.277-56.25-70.659-56.25-43.264,0-76.389,27.431-76.389,86.528,0,60.555,33.125,86.493,76.389,86.493,40.382,0,66.319-23.056,70.659-56.25l-2.882-2.847h-12.986l-2.882,2.882c-2.882,20.138-17.291,40.347-50.451,40.347s-57.674-23.056-57.674-70.625Zm288.334,80.729V146.753c0-43.229-23.056-66.319-60.556-66.319-23.055,0-43.229,10.069-53.333,27.431h-2.882V21.3l-4.34-4.34h-12.952l-2.882,2.882V247.622l2.882,2.916h12.952l2.882-2.882V156.823c0-37.5,17.326-60.556,53.368-60.556,27.4,0,43.229,17.292,43.229,50.452V247.656l2.882,2.882h12.986l5.764-2.882Zm170.139,0V146.753c0-43.229-23.056-66.319-60.556-66.319-23.055,0-43.264,10.069-53.333,27.431H1463.4l-2.882-20.209-2.882-2.882h-10.1l-2.882,2.882V247.691l2.882,2.882h12.986l2.882-2.882V156.823c0-37.5,17.292-60.556,53.333-60.556,27.4,0,43.264,17.292,43.264,50.452V247.656l2.882,2.882h14.41l2.882-2.882Zm96.6-165.8c-43.229,0-76.389,30.313-76.389,86.528,0,56.25,33.16,86.458,76.389,86.458s76.458-30.208,76.458-86.458S1720.035,81.892,1676.771,81.892Zm0,15.868c16.6,0,30.66,6.875,40.555,19.1,9.931,12.291,15.66,29.93,15.66,51.562s-5.729,39.271-15.625,51.528c-9.93,12.257-23.993,19.1-40.59,19.1a50.7,50.7,0,0,1-40.556-19.1c-9.895-12.222-15.625-29.9-15.625-51.528,0-22.361,5.73-40,15.625-52.083C1646.146,104.253,1660.174,97.76,1676.771,97.76Zm121.111,149.931V19.913L1793.542,17H1780.59l-2.916,2.881V247.691l2.916,2.882h12.952Zm99.514-165.8c-43.264,0-76.424,30.313-76.424,86.528,0,56.25,33.16,86.458,76.389,86.458s76.389-30.208,76.389-86.458-33.125-86.528-76.389-86.528Zm0,15.868c16.562,0,30.556,6.875,40.486,19.1,9.9,12.291,15.729,29.93,15.729,51.562s-5.833,39.271-15.729,51.528a52.538,52.538,0,0,1-81.042,0c-9.965-12.257-15.8-29.9-15.8-51.528,0-22.361,5.8-40,15.729-52.083,9.9-12.084,23.958-18.577,40.555-18.577ZM2061.7,80.469c-46.145,0-70.659,37.43-70.659,86.458,0,50.451,23.09,86.528,70.659,86.528,30.278,0,46.181-12.986,53.368-27.4v1.424c0,43.263-10.069,76.423-50.451,76.423-30.278,0-40.382-12.916-43.264-30.208l-2.916-2.952h-12.952l-2.916,2.917c2.881,27.431,23.125,46.111,63.472,46.111,43.264,0,70.659-27.4,70.659-93.715V87.656l-2.916-2.847h-10.07l-2.882,2.847-2.916,20.209h-2.848c-7.187-12.987-23.09-27.431-53.368-27.431Zm0,15.868c16.6,0,29.931,5.694,39.132,17.43,9.2,11.7,14.236,29.375,14.236,53.16s-5.034,41.458-14.236,53.16c-9.2,11.736-22.569,17.5-39.132,17.5s-29.93-5.764-39.131-17.5c-9.2-11.7-14.167-29.375-14.167-53.16,0-23.055,4.965-40.729,14.167-52.639C2031.771,102.413,2045.139,96.337,2061.7,96.337ZM2188.576,54.5V34.323l-2.882-2.882h-12.951l-4.34,2.882V54.5l2.882,2.881h12.986Zm0,193.194V87.656l-2.882-2.882h-12.951l-4.34,2.882V247.691l2.882,2.882h12.986Zm96.6-167.222c-46.146,0-73.507,33.125-73.507,80.694v7.292c0,46.111,23.055,86.458,76.389,86.458,46.18,0,63.472-30.312,66.354-50.486l-2.917-2.847h-12.951l-2.917,2.847c-7.222,20.174-20.139,33.16-46.111,33.16-43.264,0-56.25-40.382-56.25-60.556l2.951-2.847h119.618l2.917-2.917V161.2c0-46.181-27.431-80.729-73.577-80.729Zm0,17.291c20.173,0,33.541,8.3,41.84,19.445,8.3,11.18,11.528,25.243,11.528,36.8l-2.917,2.882h-100.9l-2.847-2.916c0-11.528,3.229-25.591,11.528-36.771,8.3-11.146,21.6-19.445,41.771-19.445ZM2500,207.309c0-30.278-17.292-43.229-50.452-50.451s-53.333-10.07-53.333-33.16c0-17.292,12.951-27.4,37.5-27.4,30.243,0,40.347,12.986,40.347,30.278l2.882,2.882h12.986l2.882-2.882c0-33.16-27.43-46.146-60.555-46.146-37.5,0-56.25,20.208-56.25,43.264,0,27.4,20.208,40.382,53.368,46.146,33.16,7.187,50.451,10.069,50.451,37.5,0,17.291-10.069,30.243-43.264,30.243-30.278,0-43.229-17.292-43.229-37.5l-2.917-2.847h-12.951l-2.882,2.882c0,30.277,23.056,53.333,63.438,53.333,41.8,1.458,61.979-18.75,61.979-46.146Z" transform="translate(0 -0.226)" fill="#ffffff"/>
	<path d="M794.41,201.406v47.709h-150V13.872h54.514v187.5H794.41ZM340.9.226,207.986,102.552C194.34,51.406,150,13.872,95.486,13.872H0V249.115H95.486c54.514,0,102.257-37.5,112.5-88.646L340.9,262.76,473.889,160.469v88.646h150V201.372H525.1V13.872H470.486v88.611L344.34,204.844l-27.257-23.889,61.389-47.743,64.792-51.146-37.5-30.625L279.618,150.226l-27.257-23.854L378.472,30.885,340.972.226ZM51.111,61.615h40.9a59.126,59.126,0,0,1,24.549,5.416,66.643,66.643,0,0,1,20.694,15.035,71.782,71.782,0,0,1,14.236,22.674,78.9,78.9,0,0,1,.486,55.451,74.053,74.053,0,0,1-13.542,22.882,63.9,63.9,0,0,1-20.451,15.8,59.319,59.319,0,0,1-25.972,5.9h-40.9Z" transform="translate(0 -0.226)" fill="#ffffff"/>
</svg>